<svg width="13" height="18" viewBox="0 0 13 18" fill="none" xmlns="http://www.w3.org/2000/svg">
<path d="M7.99994 14.02H8.49994V13.02H7.99994C7.02794 13.02 6.20127 12.6793 5.51994 11.998C4.83994 11.318 4.49994 10.4916 4.49994 9.51896V9.01896H3.49994V9.51896C3.49994 10.7643 3.9386 11.8256 4.81594 12.703C5.69327 13.5803 6.7546 14.019 7.99994 14.019M6.97594 17.019C5.29794 17.019 3.87594 16.42 2.70994 15.222C1.54394 14.024 0.960937 12.57 0.960938 10.86C0.960938 9.73396 1.1446 8.58829 1.51194 7.42296C1.87994 6.25762 2.3566 5.19696 2.94194 4.24096C3.52727 3.28496 4.1756 2.50262 4.88694 1.89396C5.59827 1.28529 6.29627 0.980957 6.98094 0.980957C7.6696 0.980957 8.36994 1.28162 9.08194 1.88296C9.79394 2.48429 10.4416 3.26262 11.0249 4.21796C11.6083 5.17329 12.0833 6.23762 12.4499 7.41096C12.8166 8.58429 12.9999 9.73396 12.9999 10.86C12.9999 12.57 12.4156 14.024 11.2469 15.222C10.0776 16.42 8.65427 17.019 6.97694 17.019M6.98094 16.019C8.37694 16.019 9.56227 15.519 10.5369 14.519C11.5116 13.519 11.9993 12.3036 11.9999 10.873C11.9999 9.89162 11.8406 8.87929 11.5219 7.83596C11.2033 6.79196 10.7983 5.83696 10.3069 4.97096C9.8156 4.10496 9.27327 3.39029 8.67994 2.82696C8.0866 2.26362 7.51994 1.98162 6.97994 1.98096C6.43727 1.98096 5.87027 2.26296 5.27894 2.82696C4.6876 3.39096 4.14627 4.10929 3.65494 4.98196C3.1636 5.85462 2.75827 6.81262 2.43894 7.85596C2.1196 8.89929 1.96027 9.90262 1.96094 10.866C1.96094 12.3 2.4486 13.5173 3.42394 14.518C4.39927 15.5186 5.58494 16.019 6.98094 16.019Z" fill="#FFD700"/>
</svg>
